<svg width="34" height="34" viewBox="0 0 34 34" fill="none" xmlns="http://www.w3.org/2000/svg">
<path d="M24.2414 2.33328H28.311C29.1736 2.31826 30.0118 2.61547 30.6665 3.16849C31.3211 3.7215 31.7467 4.49182 31.8623 5.33322V15.833C31.7467 16.6744 31.3211 17.4447 30.6665 17.9978C30.0118 18.5508 29.1736 18.848 28.311 18.833H24.2414M13.5721 21.8329V27.8328C13.5721 29.0263 14.0538 30.1708 14.9114 31.0147C15.7689 31.8586 16.9319 32.3327 18.1446 32.3327L24.2414 18.833V2.33328H7.04857C6.31341 2.3251 5.60002 2.57866 5.03984 3.04725C4.47966 3.51584 4.11043 4.16788 4.0002 4.88323L1.89682 18.383C1.83051 18.8129 1.85998 19.2519 1.98318 19.6696C2.10639 20.0872 2.32039 20.4735 2.61036 20.8017C2.90032 21.1298 3.25932 21.392 3.66248 21.5701C4.06564 21.7482 4.50332 21.8378 4.94519 21.8329H13.5721Z" stroke="#D9D9D9" stroke-width="3" stroke-linecap="round" stroke-linejoin="round"/>
</svg>
