<svg width="30" height="30" viewBox="0 0 30 30" fill="none" xmlns="http://www.w3.org/2000/svg">
<path d="M26.39 7.6645L18.23 1.95534C16.0058 0.397003 12.5917 0.482003 10.4525 2.1395L3.35499 7.67867C1.93832 8.78367 0.819153 11.0503 0.819153 12.8353V22.6103C0.819153 26.2228 3.75165 29.1695 7.36415 29.1695H22.6358C26.2483 29.1695 29.1808 26.237 29.1808 22.6245V13.0195C29.1808 11.107 27.9483 8.75534 26.39 7.6645ZM16.0625 23.5028C16.0625 24.0837 15.5808 24.5653 15 24.5653C14.4192 24.5653 13.9375 24.0837 13.9375 23.5028V19.2528C13.9375 18.672 14.4192 18.1903 15 18.1903C15.5808 18.1903 16.0625 18.672 16.0625 19.2528V23.5028Z" fill="#0094FF"/>
</svg>
