<svg width="34" height="35" viewBox="0 0 34 35" fill="none" xmlns="http://www.w3.org/2000/svg">
<path d="M9.62093 33.1831H5.04837C4.23989 33.1831 3.46453 32.8546 2.89285 32.2698C2.32117 31.685 2 30.8918 2 30.0648V19.1507C2 18.3237 2.32117 17.5305 2.89285 16.9457C3.46453 16.3609 4.23989 16.0324 5.04837 16.0324H9.62093M20.2902 12.9141V6.67746C20.2902 5.43692 19.8085 4.24719 18.951 3.37C18.0934 2.4928 16.9304 2 15.7177 2L9.62093 16.0324V33.1831H26.8137C27.5489 33.1916 28.2623 32.928 28.8225 32.4409C29.3826 31.9539 29.7519 31.2761 29.8621 30.5325L31.9655 16.5001C32.0318 16.0532 32.0023 15.5969 31.8791 15.1628C31.7559 14.7287 31.5419 14.3271 31.2519 13.986C30.962 13.6449 30.603 13.3724 30.1998 13.1873C29.7967 13.0022 29.359 12.909 28.9171 12.9141H20.2902Z" stroke="#D9D9D9" stroke-width="3" stroke-linecap="round" stroke-linejoin="round"/>
</svg>
