<svg width="30" height="30" viewBox="0 0 30 30" fill="none" xmlns="http://www.w3.org/2000/svg">
<path d="M22.0833 0.833336H7.91665C4.00665 0.833336 0.833313 3.9925 0.833313 7.88834V17.7767C0.833313 21.6725 4.00665 24.8317 7.91665 24.8317H10.0416C10.4241 24.8317 10.9341 25.0867 11.175 25.3983L13.3 28.2175C14.235 29.4642 15.765 29.4642 16.7 28.2175L18.825 25.3983C19.0941 25.0442 19.5191 24.8317 19.9583 24.8317H22.0833C25.9933 24.8317 29.1666 21.6725 29.1666 17.7767V7.88834C29.1666 3.9925 25.9933 0.833336 22.0833 0.833336ZM9.33331 15C8.53998 15 7.91665 14.3625 7.91665 13.5833C7.91665 12.8042 8.55415 12.1667 9.33331 12.1667C10.1125 12.1667 10.75 12.8042 10.75 13.5833C10.75 14.3625 10.1266 15 9.33331 15ZM15 15C14.2066 15 13.5833 14.3625 13.5833 13.5833C13.5833 12.8042 14.2208 12.1667 15 12.1667C15.7791 12.1667 16.4166 12.8042 16.4166 13.5833C16.4166 14.3625 15.7933 15 15 15ZM20.6666 15C19.8733 15 19.25 14.3625 19.25 13.5833C19.25 12.8042 19.8875 12.1667 20.6666 12.1667C21.4458 12.1667 22.0833 12.8042 22.0833 13.5833C22.0833 14.3625 21.46 15 20.6666 15Z" fill="black"/>
</svg>
