<svg width="26" height="30" viewBox="0 0 26 30" fill="none" xmlns="http://www.w3.org/2000/svg">
<path d="M24.6025 17.9183L23.0017 15.255C22.6475 14.6742 22.3358 13.555 22.3358 12.875V10.2258C22.3358 5.08333 18.1567 0.904167 13.0283 0.904167C7.88584 0.918334 3.70667 5.08333 3.70667 10.2258V12.8608C3.70667 13.5408 3.395 14.66 3.055 15.2408L1.45417 17.9042C0.845002 18.9383 0.703336 20.1142 1.08584 21.1342C1.46834 22.1683 2.3325 22.99 3.46584 23.3583C4.99584 23.8683 6.54 24.2367 8.1125 24.5058C8.26834 24.5342 8.42417 24.5483 8.58 24.5767L9.20333 24.6617C9.57167 24.7183 9.94 24.7608 10.3225 24.7892C12.1083 24.9575 13.9059 24.9575 15.6917 24.7892C16.0175 24.7608 16.3433 24.7325 16.655 24.69C16.91 24.6617 17.165 24.6333 17.42 24.5908C17.5758 24.5767 17.7317 24.5483 17.8875 24.52C19.4742 24.265 21.0467 23.8683 22.5767 23.3583C23.106 23.1814 23.5891 22.8887 23.991 22.5015C24.3929 22.1143 24.7035 21.6423 24.9 21.12C25.2967 20.0575 25.1833 18.8958 24.6025 17.9183ZM14.0625 12.1667C14.0625 12.4522 13.9491 12.7261 13.7472 12.928C13.5452 13.1299 13.2714 13.2433 12.9858 13.2433C12.7003 13.2433 12.4264 13.1299 12.2245 12.928C12.0226 12.7261 11.9092 12.4522 11.9092 12.1667V7.775C11.9092 7.48945 12.0226 7.2156 12.2245 7.01368C12.4264 6.81177 12.7003 6.69833 12.9858 6.69833C13.2714 6.69833 13.5452 6.81177 13.7472 7.01368C13.9491 7.2156 14.0625 7.48945 14.0625 7.775V12.1667ZM17.0092 26.3475C16.7113 27.1722 16.1666 27.8852 15.4494 28.3896C14.7321 28.894 13.8769 29.1653 13 29.1667C11.8808 29.1667 10.7758 28.7133 9.99667 27.9058C9.54334 27.4808 9.20334 26.9142 9.005 26.3333C9.18917 26.3617 9.37333 26.3758 9.57167 26.4042C9.8975 26.4467 10.2375 26.4892 10.5775 26.5175C11.385 26.5883 12.2067 26.6308 13.0283 26.6308C13.8358 26.6308 14.6433 26.5883 15.4367 26.5175C15.7342 26.4892 16.0317 26.475 16.315 26.4325L17.0092 26.3475Z" fill="black"/>
</svg>
