<svg width="34" height="34" viewBox="0 0 34 34" fill="none" xmlns="http://www.w3.org/2000/svg">
<path d="M12.75 31.1667H21.25C28.3333 31.1667 31.1666 28.3333 31.1666 21.25V12.75C31.1666 5.66668 28.3333 2.83334 21.25 2.83334H12.75C5.66665 2.83334 2.83331 5.66668 2.83331 12.75V21.25C2.83331 28.3333 5.66665 31.1667 12.75 31.1667Z" stroke="black" stroke-width="3" stroke-linecap="round" stroke-linejoin="round"/>
<path d="M22.0575 26.2083V20.6833M22.0575 10.5542V7.79166M11.9425 26.2083V23.4458M11.9425 13.3167V7.79166M22.0575 17.9208C22.5412 17.9208 23.0202 17.8256 23.467 17.6404C23.9139 17.4553 24.32 17.184 24.662 16.842C25.004 16.5 25.2753 16.0939 25.4604 15.647C25.6455 15.2002 25.7408 14.7212 25.7408 14.2375C25.7408 13.7538 25.6455 13.2748 25.4604 12.8279C25.2753 12.3811 25.004 11.975 24.662 11.633C24.32 11.291 23.9139 11.0196 23.467 10.8345C23.0202 10.6494 22.5412 10.5542 22.0575 10.5542C21.0806 10.5542 20.1437 10.9422 19.453 11.633C18.7622 12.3237 18.3742 13.2606 18.3742 14.2375C18.3742 15.2144 18.7622 16.1512 19.453 16.842C20.1437 17.5328 21.0806 17.9208 22.0575 17.9208V17.9208ZM11.9425 23.4458C12.4262 23.4458 12.9052 23.3506 13.352 23.1654C13.7989 22.9803 14.205 22.709 14.547 22.367C14.889 22.025 15.1603 21.6189 15.3454 21.172C15.5305 20.7252 15.6258 20.2462 15.6258 19.7625C15.6258 19.2788 15.5305 18.7998 15.3454 18.3529C15.1603 17.9061 14.889 17.5 14.547 17.158C14.205 16.816 13.7989 16.5446 13.352 16.3595C12.9052 16.1744 12.4262 16.0792 11.9425 16.0792C10.9656 16.0792 10.0287 16.4672 9.33798 17.158C8.64722 17.8487 8.25916 18.7856 8.25916 19.7625C8.25916 20.7394 8.64722 21.6762 9.33798 22.367C10.0287 23.0578 10.9656 23.4458 11.9425 23.4458V23.4458Z" stroke="black" stroke-width="3" stroke-miterlimit="10" stroke-linecap="round" stroke-linejoin="round"/>
</svg>
